<svg height="511pt" viewBox="-8 1 511 511.99995" width="511pt" xmlns="http://www.w3.org/2000/svg"><path d="m9.035156 42.667969h426.664063v418.132812h-426.664063zm0 0" fill="#ebebeb"/><path d="m9.035156 42.667969h426.664063v85.332031h-426.664063zm0 0" fill="#ffc064"/><path d="m60.234375 8.535156c9.425781 0 17.066406 7.640625 17.066406 17.066406v34.132813c0 9.425781-7.640625 17.066406-17.066406 17.066406s-17.066406-7.640625-17.066406-17.066406v-34.132813c0-9.425781 7.640625-17.066406 17.066406-17.066406zm0 0" fill="#69b0bb"/><path d="m128.5 8.535156c9.425781 0 17.066406 7.640625 17.066406 17.066406v34.132813c0 9.425781-7.640625 17.066406-17.066406 17.066406s-17.066406-7.640625-17.066406-17.066406v-34.132813c0-9.425781 7.640625-17.066406 17.066406-17.066406zm0 0" fill="#69b0bb"/><path d="m384.5 8.535156c9.425781 0 17.066406 7.640625 17.066406 17.066406v34.132813c0 9.425781-7.640625 17.066406-17.066406 17.066406s-17.066406-7.640625-17.066406-17.066406v-34.132813c0-9.425781 7.640625-17.066406 17.066406-17.066406zm0 0" fill="#69b0bb"/><path d="m316.234375 8.535156c9.425781 0 17.066406 7.640625 17.066406 17.066406v34.132813c0 9.425781-7.640625 17.066406-17.066406 17.066406s-17.066406-7.640625-17.066406-17.066406v-34.132813c0-9.425781 7.640625-17.066406 17.066406-17.066406zm0 0" fill="#69b0bb"/><g fill="#ffc064"><path d="m375.964844 349.867188h17.070312v17.066406h-17.070312zm0 0"/><path d="m375.964844 315.734375h17.070312v17.066406h-17.070312zm0 0"/><path d="m375.964844 281.601562h17.070312v17.066407h-17.070312zm0 0"/><path d="m324.765625 418.132812h17.066406v17.066407h-17.066406zm0 0"/><path d="m290.632812 418.132812h17.066407v17.066407h-17.066407zm0 0"/><path d="m256.5 418.132812h17.066406v17.066407h-17.066406zm0 0"/><path d="m486.898438 443.734375c0 32.988281-26.742188 59.730469-59.730469 59.730469-32.992188 0-59.734375-26.742188-59.734375-59.730469 0-32.992187 26.742187-59.734375 59.734375-59.734375 32.988281 0 59.730469 26.742188 59.730469 59.734375zm0 0"/></g><path d="m427.167969 477.867188c-2.265625.003906-4.4375-.894532-6.035157-2.5l-25.597656-25.601563 12.066406-12.066406 18.855469 18.859375 28.160157-35.226563 13.332031 10.667969-34.132813 42.667969c-1.519531 1.890625-3.769531 3.046875-6.1875 3.183593zm0 0" fill="#6b9777"/><path d="m224.074219 237.226562-40.578125 29.484376 15.496094 47.699218h50.160156l15.496094-47.699218zm0 0" fill="#69b0bb"/><path d="m263.8125 174.601562c-25.585938-9.796874-53.890625-9.796874-79.480469 0l39.742188 28.875zm0 0" fill="#5d9aa4"/><path d="m136.179688 209.511719c-16.042969 19.945312-24.777344 44.78125-24.746094 70.382812 0 1.765625.1875 3.480469.265625 5.230469l39.695312-28.851562zm0 0" fill="#5d9aa4"/><path d="m129.96875 341.707031c15.066406 22.878907 37.945312 39.492188 64.367188 46.730469l-15.183594-46.730469zm0 0" fill="#5d9aa4"/><path d="m253.8125 388.4375c26.421875-7.238281 49.300781-23.851562 64.367188-46.730469h-49.1875zm0 0" fill="#5d9aa4"/><path d="m336.449219 285.125c.078125-1.707031.265625-3.464844.265625-5.230469.027344-25.601562-8.703125-50.4375-24.75-70.382812l-15.1875 46.761719zm0 0" fill="#5d9aa4"/><path d="m318.597656 204.175781c-41.871094-52.207031-118.132812-60.585937-170.339844-18.714843-6.902343 5.535156-13.179687 11.8125-18.71875 18.714843-17.316406 21.425781-26.726562 48.167969-26.640624 75.71875 0 1.339844.085937 2.652344.179687 3.976563l.09375 1.652344c2.96875 66.773437 59.507813 118.496093 126.277344 115.527343 62.613281-2.785156 112.738281-52.914062 115.523437-115.527343l.101563-1.652344c.09375-1.324219.171875-2.636719.171875-3.976563.085937-27.554687-9.328125-54.292969-26.648438-75.71875zm-3.910156 24.492188c6.917969 12.125 11.277344 25.539062 12.800781 39.414062l-20.734375-15.070312zm-12.320312-17.296875-12.382813 38.125-23.839844 7.75-33.539062-24.347656v-25.078126l32.425781-23.5c14.308594 6.117188 27.066406 15.359376 37.335938 27.050782zm-97.179688 94.507812-11.664062-35.910156 30.550781-22.1875 30.539062 22.1875-11.664062 35.910156zm39.5625-128-20.675781 15.042969-20.667969-15.011719c13.636719-2.832031 27.707031-2.832031 41.34375 0zm-61.636719 6.441406 32.425781 23.535157v25.035156l-33.59375 24.40625-23.792968-7.730469-12.371094-38.195312c10.269531-11.691406 23.023438-20.933594 37.332031-27.050782zm-49.664062 44.371094 7.917969 24.347656-20.742188 15.070313c1.539062-13.878906 5.902344-27.292969 12.824219-39.417969zm1.238281 104.507813c-7.957031-13.390625-12.796875-28.402344-14.15625-43.917969l32.339844-23.492188 23.851562 7.738282 12.800782 39.40625-14.722657 20.277344zm12.730469 17.070312h25.539062l7.886719 24.257813c-12.65625-5.773438-24.023438-14.035156-33.425781-24.285156zm99.695312 31.042969c-15.175781 3.574219-30.972656 3.574219-46.148437 0l-12.375-38.09375 14.722656-20.273438h41.496094l14.71875 20.257813zm20.164063-6.828125 7.875-24.257813h25.550781c-9.398437 10.238282-20.753906 18.492188-33.390625 24.277344zm46.15625-41.324219h-40.105469l-14.730469-20.269531 12.800782-39.429687 23.824218-7.75 32.394532 23.570312c-1.363282 15.507812-6.199219 30.511719-14.148438 43.894531zm0 0" fill="#62666a"/><path d="m266.832031 166.613281c-27.542969-10.480469-57.976562-10.480469-85.519531 0-20.300781 7.667969-38.175781 20.632813-51.773438 37.546875-17.320312 21.429688-26.730468 48.175782-26.640624 75.734375 0 1.328125.085937 2.644531.179687 3.96875l.09375 1.703125c2.339844 52.410156 38.265625 97.308594 88.882813 111.089844 20.929687 5.871094 43.074218 5.871094 64 0 50.644531-13.773438 86.585937-58.683594 88.917968-111.113281l.101563-1.707031c.09375-1.324219.171875-2.636719.171875-3.96875.085937-27.550782-9.324219-54.289063-26.648438-75.714844-13.589844-16.914063-31.464844-29.878906-51.765625-37.539063zm35.535157 44.757813-12.382813 38.117187-23.839844 7.757813-33.539062-24.347656v-25.078126l32.425781-23.5c14.3125 6.113282 27.070312 15.355469 37.335938 27.050782zm-47.785157 58.597656-11.667969 35.910156h-37.726562l-11.664062-35.910156 30.550781-22.1875zm-9.832031-92.058594-20.675781 15.011719-20.667969-15.011719c13.636719-2.832031 27.707031-2.832031 41.34375 0zm-61.636719 6.410156 32.425781 23.535157v25.035156l-33.59375 24.40625-23.800781-7.730469-12.363281-38.195312c10.269531-11.691406 23.023438-20.933594 37.332031-27.050782zm-49.664062 44.371094 7.917969 24.355469-20.753907 15.078125c1.546875-13.882812 5.914063-27.300781 12.835938-39.433594zm1.238281 104.519532c-7.953125-13.398438-12.792969-28.410157-14.15625-43.929688l32.347656-23.503906 23.84375 7.742187 12.800782 39.40625-14.722657 20.285157zm12.730469 17.066406h25.539062l7.878907 24.242187c-12.652344-5.769531-24.015626-14.023437-33.417969-24.269531zm99.695312 31.042968c-15.175781 3.558594-30.964843 3.558594-46.140625 0l-12.382812-38.101562 14.722656-20.273438h41.453125l14.730469 20.273438zm20.164063-6.828124 7.875-24.242188h25.550781c-9.398437 10.230469-20.753906 18.472656-33.390625 24.242188zm46.15625-41.308594h-40.105469l-14.730469-20.285156 12.800782-39.421876 23.816406-7.738281 32.402344 23.542969c-1.363282 15.507812-6.199219 30.515625-14.148438 43.902344zm-6.679688-80.160156 7.941406-24.332032c6.914063 12.132813 11.269532 25.546875 12.800782 39.425782zm0 0"/><path d="m375.964844 349.867188h17.070312v17.066406h-17.070312zm0 0"/><path d="m375.964844 315.734375h17.070312v17.066406h-17.070312zm0 0"/><path d="m375.964844 281.601562h17.070312v17.066407h-17.070312zm0 0"/><path d="m324.765625 418.132812h17.066406v17.066407h-17.066406zm0 0"/><path d="m290.632812 418.132812h17.066407v17.066407h-17.066407zm0 0"/><path d="m256.5 418.132812h17.066406v17.066407h-17.066406zm0 0"/><path d="m407.601562 437.699219-12.066406 12.066406 25.597656 25.601563c1.597657 1.605468 3.769532 2.503906 6.035157 2.5h.476562c2.421875-.136719 4.671875-1.292969 6.1875-3.183594l34.132813-42.667969-13.328125-10.664063-28.160157 35.222657zm0 0"/><path d="m427.167969 512c37.679687.023438 68.242187-30.503906 68.261719-68.183594.019531-31.136718-21.046876-58.335937-51.195313-66.105468v-335.042969c0-4.714844-3.820313-8.535157-8.535156-8.535157h-25.597657v-8.53125c0-14.140624-11.460937-25.601562-25.601562-25.601562-14.136719 0-25.597656 11.460938-25.597656 25.601562v8.53125h-17.070313v-8.53125c0-14.140624-11.460937-25.601562-25.597656-25.601562-14.140625 0-25.601563 11.460938-25.601563 25.601562v8.53125h-136.53125v-8.53125c0-14.140624-11.464843-25.601562-25.601562-25.601562-14.140625 0-25.601562 11.460938-25.601562 25.601562v8.53125h-17.066407v-8.53125c0-14.140624-11.460937-25.601562-25.597656-25.601562-14.140625 0-25.601563 11.460938-25.601563 25.601562v8.53125h-25.597656c-4.714844 0-8.535156 3.820313-8.535156 8.535157v418.132812c0 4.710938 3.820312 8.53125 8.535156 8.53125h354.890625c10.441407 25.761719 35.445313 42.628907 63.242188 42.667969zm51.199219-68.265625c0 28.277344-22.921876 51.199219-51.199219 51.199219-28.277344 0-51.203125-22.921875-51.203125-51.199219s22.925781-51.203125 51.203125-51.203125c28.265625.03125 51.171875 22.9375 51.199219 51.203125zm-102.402344-418.132813c0-4.714843 3.820312-8.535156 8.535156-8.535156s8.535156 3.820313 8.535156 8.535156v34.132813c0 4.710937-3.820312 8.53125-8.535156 8.53125s-8.535156-3.820313-8.535156-8.53125zm-68.265625 0c0-4.714843 3.820312-8.535156 8.535156-8.535156 4.710937 0 8.53125 3.820313 8.53125 8.535156v34.132813c0 4.710937-3.820313 8.53125-8.53125 8.53125-4.714844 0-8.535156-3.820313-8.535156-8.53125zm-187.730469 0c0-4.714843 3.820312-8.535156 8.53125-8.535156 4.714844 0 8.535156 3.820313 8.535156 8.535156v34.132813c0 4.710937-3.820312 8.53125-8.535156 8.53125-4.710938 0-8.53125-3.820313-8.53125-8.53125zm-68.269531 0c0-4.714843 3.820312-8.535156 8.535156-8.535156 4.710937 0 8.53125 3.820313 8.53125 8.535156v34.132813c0 4.710937-3.820313 8.53125-8.53125 8.53125-4.714844 0-8.535156-3.820313-8.535156-8.53125zm-34.132813 25.597657h17.066406v8.535156c0 14.136719 11.460938 25.597656 25.601563 25.597656 14.136719 0 25.597656-11.460937 25.597656-25.597656v-8.535156h17.066407v8.535156c0 14.136719 11.464843 25.597656 25.601562 25.597656s25.601562-11.460937 25.601562-25.597656v-8.535156h136.53125v8.535156c0 14.136719 11.460938 25.597656 25.601563 25.597656 14.136719 0 25.597656-11.460937 25.597656-25.597656v-8.535156h17.066407v8.535156c0 14.136719 11.460937 25.597656 25.601562 25.597656 14.136719 0 25.597656-11.460937 25.597656-25.597656v-8.535156h17.066406v68.265625h-409.597656zm0 401.066406v-315.730469h409.601563v238.929688c-37.488281-.214844-68.050781 29.996094-68.269531 67.480468-.015626 3.117188.179687 6.230469.589843 9.320313zm0 0"/></svg>